<?xml version="1.0" encoding="UTF-8"?><svg id="Vrstva_2" xmlns="http://www.w3.org/2000/svg" viewBox="0 0 2553.84 550.36"><g id="Vrstva_1-2"><g id="Vodorovné_-_text_vodorovně"><g><path d="M597.26,124.43h112.95c36,0,65.55,8.33,88.65,24.97,23.1,16.65,34.65,41.48,34.65,74.48,0,18-4.21,33.9-12.6,47.7-8.4,13.8-19.8,24.75-34.2,32.85l71.55,126h-78.75l-57.15-106.2h-54.9v106.2h-70.2V124.43Zm110.7,56.7h-40.5v87.3h41.4c15.3,0,27.67-3.83,37.12-11.47,9.45-7.65,14.17-18.23,14.17-31.73,0-15-4.5-26.1-13.5-33.3s-21.9-10.8-38.7-10.8Z" style="fill:#303841;"/><path d="M1097.89,382.28c-10.35,17.1-24.68,30.23-42.97,39.38-18.3,9.15-39.15,13.73-62.55,13.73s-44.55-4.43-62.55-13.28c-18-8.84-32.03-21.9-42.08-39.15-10.05-17.25-15.07-38.03-15.07-62.33s5.17-43.8,15.52-61.2c10.35-17.4,24.6-30.75,42.75-40.05,18.15-9.3,38.92-13.95,62.33-13.95s44.62,4.58,62.78,13.72c18.15,9.16,32.25,22.43,42.3,39.83,10.05,17.4,15.08,38.25,15.08,62.55s-5.18,43.65-15.53,60.75Zm-70.42-20.25c8.7-10.2,13.05-23.7,13.05-40.5s-4.28-30.6-12.83-41.4-19.88-16.2-33.97-16.2-26.4,5.17-35.1,15.53c-8.7,10.35-13.05,24.07-13.05,41.17s4.28,30.83,12.83,41.17,20.03,15.53,34.42,15.53,25.95-5.1,34.65-15.3Z" style="fill:#303841;"/><path d="M1198.46,435.83l6.3-14.85-76.95-197.55,66.6-19.35,47.7,135.9,44.55-127.8h72l-96.75,245.25c-6.9,17.1-19.28,32.17-37.12,45.22-17.85,13.05-37.43,21.97-58.72,26.78l-23.85-55.8c15.59-6.6,28.2-12.75,37.8-18.45,9.6-5.7,15.75-12.15,18.45-19.35Z" style="fill:#303841;"/><path d="M1407.7,279.68l-18.9-54c9.9-5.4,23.55-10.12,40.95-14.17,17.4-4.05,33-6.08,46.8-6.08,18.29,0,34.5,3.6,48.6,10.8,14.1,7.2,24.97,17.33,32.62,30.38s11.47,27.98,11.47,44.78v139.05h-39.15l-16.65-22.95c-16.2,18.6-34.05,27.9-53.55,27.9-26.4,0-46.35-6.53-59.85-19.58s-20.25-30.83-20.25-53.33,7.5-38.85,22.5-49.95c15-11.09,35.55-16.65,61.65-16.65h34.2c-.6-9.6-3.68-17.02-9.22-22.28-5.55-5.25-12.98-7.88-22.28-7.88-8.71,0-18.6,1.35-29.7,4.05-11.1,2.7-20.85,6-29.25,9.9Zm31.5,82.35c0,5.4,1.95,10.05,5.85,13.95,3.89,3.9,9,5.85,15.3,5.85,13.2,0,25.95-5.7,38.25-17.1v-26.55h-34.2c-7.5,0-13.58,2.25-18.22,6.75-4.66,4.5-6.98,10.2-6.98,17.1Z" style="fill:#303841;"/><path d="M1618.75,430.43V117.68l70.2-4.95V430.43h-70.2Z" style="fill:#303841;"/><path d="M2027.34,308.03h-103.05v122.4h-70.2V124.88h186.3l8.1,54.9h-124.2v72.9h94.95l8.1,55.35Z" style="fill:#303841;"/><path d="M2292.62,382.28c-10.35,17.1-24.68,30.23-42.97,39.38-18.3,9.15-39.15,13.73-62.55,13.73s-44.55-4.43-62.55-13.28c-18-8.84-32.03-21.9-42.08-39.15-10.05-17.25-15.07-38.03-15.07-62.33s5.17-43.8,15.52-61.2c10.35-17.4,24.6-30.75,42.75-40.05,18.15-9.3,38.92-13.95,62.33-13.95s44.62,4.58,62.78,13.72c18.15,9.16,32.25,22.43,42.3,39.83,10.05,17.4,15.08,38.25,15.08,62.55s-5.18,43.65-15.53,60.75Zm-70.42-20.25c8.7-10.2,13.05-23.7,13.05-40.5s-4.28-30.6-12.83-41.4-19.88-16.2-33.97-16.2-26.4,5.17-35.1,15.53c-8.7,10.35-13.05,24.07-13.05,41.17s4.28,30.83,12.83,41.17,20.03,15.53,34.42,15.53,25.95-5.1,34.65-15.3Z" style="fill:#303841;"/><path d="M2322.54,430.43l72.45-109.8-68.4-97.65,67.05-17.55,43.65,67.95,39.15-61.2h77.4l-74.25,114.75,70.65,103.5h-78.3l-34.65-56.25-36,56.25h-78.75Z" style="fill:#303841;"/></g><g><polygon points="57.86 377.28 58.82 428.96 15.84 344.98 15.41 297.41 57.86 377.28" style="fill:#fd5602;"/><polygon points="46.69 223.97 26.79 249.47 0 183.28 37.21 56.17 43 68.68 12.71 179.88 46.69 223.97" style="fill:#60280c;"/><polygon points="189.18 357.22 156.25 357.22 175.62 385.18 189.18 385.18 189.18 393.51 153.82 411 139.97 289.35 153.12 271.76 189.18 223.97 189.18 357.22" style="fill:#f4b37d;"/><polygon points="139.97 289.35 114.56 325.03 15.41 297.41 26.79 249.47 75.76 249.47 139.97 289.35" style="fill:#e2532d;"/><polygon points="222.11 357.22 202.73 385.18 175.62 385.18 156.25 357.22 222.11 357.22" style="fill:#421b0a;"/><polygon points="154.28 49.71 189.18 22.41 190.34 22.41 225.24 50.02 298.99 0 242.61 119.24 136.91 119.24 80.53 0 154.28 49.71" style="fill:#ffe000;"/><polygon points="189.18 136.72 189.18 223.97 153.12 271.76 124.73 249.47 189.18 136.72" style="fill:#fd5602;"/><polygon points="351 249.47 253.05 249.47 189.18 136.72 242.04 136.72 340.58 56.17 334.78 68.68 288.25 169.06 327.02 218.74 351 249.47" style="fill:#fd5602;"/><polygon points="334.78 68.68 327.02 218.74 288.25 169.06 334.78 68.68" style="fill:#e5e5e5;"/><polygon points="367.1 179.88 327.02 218.74 334.78 68.68 367.1 179.88" style="fill:#ccc;"/><polygon points="362.37 344.55 319.82 428.96 319.92 377.28 362.37 297.41 362.37 344.55" style="fill:#fd5602;"/><polygon points="237.82 289.35 221.82 410.09 189.18 393.51 189.18 385.18 202.73 385.18 222.11 357.22 189.18 357.22 189.18 223.85 224.67 271.76 237.82 289.35" style="fill:#fd5602;"/><polygon points="362.37 297.41 263.22 325.03 237.82 289.35 302.03 249.47 351 249.47 362.37 297.41" style="fill:#e2532d;"/><polygon points="377.78 183.28 351 249.47 327.02 218.74 367.1 179.88 334.78 68.68 340.58 56.17 377.78 183.28" style="fill:#60280c;"/><polygon points="263.22 325.03 221.82 410.09 237.82 289.35 263.22 325.03" style="fill:#7c411e;"/><polygon points="319.92 377.28 188.98 484.07 57.86 377.28 153.82 410 221.82 410.09 319.92 377.28" style="fill:#999;"/><polygon points="319.82 428.96 188.61 550.36 58.82 428.96 57.86 377.28 188.98 484.07 319.92 377.28 319.82 428.96" style="fill:#ccc;"/><polygon points="221.82 410.09 153.82 410.09 189.18 393.51 221.82 410.09" style="fill:#6b2a09;"/><polygon points="362.37 297.41 319.92 377.28 221.82 410.09 263.22 325.03 362.37 297.41" style="fill:#ff8303;"/><polygon points="153.82 410 114.56 325.03 139.97 289.35 153.82 410" style="fill:#7c411e;"/><polygon points="153.82 410 57.86 377.28 15.41 297.41 114.56 325.03 153.82 410" style="fill:#ff8303;"/><polygon points="302.03 249.47 237.82 289.35 224.67 271.76 253.05 249.47 302.03 249.47" style="fill:#6b2a09;"/><polygon points="253.05 249.47 224.67 271.76 189.18 223.85 189.18 136.72 253.05 249.47" style="fill:#f4b37d;"/><polygon points="46.69 223.97 12.71 179.88 43 68.68 46.69 223.97" style="fill:#ccc;"/><polygon points="153.12 271.76 139.97 289.35 75.76 249.47 124.73 249.47 153.12 271.76" style="fill:#6b2a09;"/><polygon points="89.53 169.06 46.69 223.97 43 68.68 89.53 169.06" style="fill:#e5e5e5;"/><polygon points="189.18 136.72 124.73 249.47 26.79 249.47 46.69 223.97 89.53 169.06 43 68.68 37.21 56.17 135.74 136.72 189.18 136.72" style="fill:#ff8303;"/><polygon points="189.76 119.24 190.26 22.68 225.24 50.02 298.99 0 242.61 119.24 189.76 119.24" style="fill:#ffbc00;"/></g><line x1="478.43" y1=".18" x2="478.43" y2="550.18" style="fill:#303841; stroke:#303841; stroke-miterlimit:10; stroke-width:7px;"/></g></g></svg>